<svg width="101" height="107" viewBox="0 0 101 107" fill="none" xmlns="http://www.w3.org/2000/svg">
<path fill-rule="evenodd" clip-rule="evenodd" d="M4.75 2L6.25 0.5H95.5L97 2H101V98.9999H97.0001L95.5 100.5H6.25L4.74986 98.9999H0V2H4.75Z" fill="#020B14" fill-opacity="0.95"/>
<path fill-rule="evenodd" clip-rule="evenodd" d="M97 2H100H101V3V97.9999V98.9999H100H97.0001L97 99L95.5 100.5H6.25L4.75 99L4.74986 98.9999H1H0V97.9999V3V2H1H4.75L6.25 0.5H95.5L97 2ZM5.45711 2H96.2929L95.2929 1H6.45711L5.45711 2ZM5.45711 99H14V97.9999H1V3H100V97.9999H88V99H96.2929L95.2929 100H6.45711L5.45711 99Z" fill="#E4C68A"/>
<rect x="14" y="91" width="74" height="15" fill="#021320" stroke="#021320" stroke-opacity="0.5" stroke-width="2"/>
<rect x="14" y="91" width="74" height="15" stroke="url(#paint0_linear_97_5652)"/>
<defs>
<linearGradient id="paint0_linear_97_5652" x1="51" y1="91" x2="51" y2="106" gradientUnits="userSpaceOnUse">
<stop stop-color="#E4C68A"/>
<stop offset="1" stop-color="#7A5C29"/>
</linearGradient>
</defs>
</svg>
